ffmpeg version N-82167-g5e96558 Copyright (c) 2000-2016 the FFmpeg developers
  built with gcc 5.4.0 (Ubuntu 5.4.0-6ubuntu1~16.04.2) 20160609
  configuration: --prefix=/root/ffmpeg_build --pkg-config-flags=--static --extra-cflags=-I/root/ffmpeg_build/include --extra-ldflags=-L/root/ffmpeg_build/lib --bindir=/root/bin --enable-gpl --enable-libass --enable-libfdk-aac --enable-libfreetype --enable-libmp3lame --enable-libopus --enable-libtheora --enable-libvorbis --enable-libx264 --enable-libx265 --enable-nonfree
  libavutil      55. 35.100 / 55. 35.100
  libavcodec     57. 65.100 / 57. 65.100
  libavformat    57. 57.100 / 57. 57.100
  libavdevice    57.  2.100 / 57.  2.100
  libavfilter     6. 66.100 /  6. 66.100
  libswscale      4.  3.100 /  4.  3.100
  libswresample   2.  4.100 /  2.  4.100
  libpostproc    54.  2.100 / 54.  2.100
Input #0, matroska,webm, from '/media/yubikiri/bot/queue/3AnimePahe_Detective_Conan_-_022_720p_Fansub.mkv':
  Metadata:
    title           : 3|Text||0|0
    ENCODER         : Lavf57.57.100
  Duration: 00:24:42.40, start: 0.000000, bitrate: 997 kb/s
    Stream #0:0: Video: mpeg4 (Simple Profile), yuv420p, 640x480 [SAR 1:1 DAR 4:3], 23.98 fps, 23.98 tbr, 1k tbn, 23.98 tbc (default)
    Metadata:
      DURATION        : 00:24:42.399000000
    Stream #0:1: Audio: mp3, 48000 Hz, stereo, s16p, 112 kb/s (default)
    Metadata:
      DURATION        : 00:24:41.664000000
[libx264 @ 0x33ed9c0] using SAR=1/1
[libx264 @ 0x33ed9c0] using cpu capabilities: MMX2 SSE2Fast SSSE3 SSE4.2 AVX FMA3 AVX2 LZCNT BMI2
[libx264 @ 0x33ed9c0] profile High, level 3.1
[libx264 @ 0x33ed9c0] 264 - core 148 r2643 5c65704 - H.264/MPEG-4 AVC codec - Copyleft 2003-2015 - http://www.videolan.org/x264.html - options: cabac=1 ref=8 deblock=1:1:1 analyse=0x3:0x133 me=umh subme=7 psy=1 psy_rd=0.00:0.00 mixed_ref=1 me_range=8 chroma_me=1 trellis=0 8x8dct=1 cqm=0 deadzone=21,11 fast_pskip=1 chroma_qp_offset=0 threads=8 lookahead_threads=2 sliced_threads=0 nr=0 decimate=1 interlaced=0 bluray_compat=0 constrained_intra=0 bframes=3 b_pyramid=2 b_adapt=2 b_bias=0 direct=1 weightb=1 open_gop=0 weightp=2 keyint=240 keyint_min=24 scenecut=40 intra_refresh=0 rc_lookahead=60 rc=crf mbtree=1 crf=27.0 qcomp=0.60 qpmin=0 qpmax=69 qpstep=4 ip_ratio=1.40 aq=1:1.00
[libfdk_aac @ 0x3358720] Note, the VBR setting is unsupported and only works with some parameter combinations
Output #0, mp4, to '/media/yubikiri/bot/queue/3AnimePahe_Detective_Conan_-_022_720p_Fansub.mkv_encoded.mp4':
  Metadata:
    encoder         : Lavf57.57.100
    Stream #0:0: Video: h264 (libx264) ([33][0][0][0] / 0x0021), yuv420p, 640x480 [SAR 1:1 DAR 4:3], q=-1--1, 23.98 fps, 11988 tbn, 23.98 tbc (default)
    Metadata:
      encoder         : Lavc57.65.100 libx264
    Side data:
      cpb: bitrate max/min/avg: 0/0/0 buffer size: 0 vbv_delay: -1
    Stream #0:1: Audio: aac (libfdk_aac) (HE-AACv2) ([64][0][0][0] / 0x0040), 48000 Hz, stereo, s16, 48 kb/s (default)
    Metadata:
      encoder         : Lavc57.65.100 libfdk_aac
Stream mapping:
  Stream #0:0 -> #0:0 (mpeg4 (native) -> h264 (libx264))
  Stream #0:1 -> #0:1 (mp3 (native) -> aac (libfdk_aac))
Press [q] to stop, [?] for help
frame=  129 fps=0.0 q=32.0 size=     120kB time=00:00:05.52 bitrate= 177.6kbits/s dup=1 drop=0 speed=  11x    frame=  241 fps=240 q=32.0 size=     269kB time=00:00:10.17 bitrate= 216.2kbits/s dup=1 drop=0 speed=10.1x    frame=  314 fps=208 q=32.0 size=     426kB time=00:00:13.24 bitrate= 263.3kbits/s dup=1 drop=0 speed= 8.8x    frame=  388 fps=189 q=32.0 size=     622kB time=00:00:16.36 bitrate= 311.5kbits/s dup=1 drop=0 speed=7.98x    frame=  480 fps=188 q=32.0 size=     828kB time=00:00:20.20 bitrate= 335.9kbits/s dup=1 drop=0 speed=7.92x    frame=  568 fps=186 q=32.0 size=     981kB time=00:00:23.87 bitrate= 336.6kbits/s dup=1 drop=0 speed= 7.8x    frame=  633 fps=177 q=32.0 size=    1157kB time=00:00:26.56 bitrate= 356.7kbits/s dup=1 drop=0 speed=7.44x    frame=  712 fps=175 q=32.0 size=    1357kB time=00:00:29.84 bitrate= 372.4kbits/s dup=1 drop=0 speed=7.33x    frame=  764 fps=167 q=32.0 size=    1490kB time=00:00:32.02 bitrate= 381.2kbits/s dup=1 drop=0 speed=   7x    frame=  801 fps=157 q=32.0 size=    1635kB time=00:00:33.55 bitrate= 399.1kbits/s dup=1 drop=0 speed= 6.6x    frame=  846 fps=151 q=32.0 size=    1850kB time=00:00:35.43 bitrate= 427.8kbits/s dup=1 drop=0 speed=6.34x    frame=  891 fps=146 q=32.0 size=    2076kB time=00:00:37.31 bitrate= 455.8kbits/s dup=1 drop=0 speed=6.12x    frame=  943 fps=143 q=32.0 size=    2238kB time=00:00:39.48 bitrate= 464.3kbits/s dup=1 drop=0 speed=5.99x    frame= 1010 fps=142 q=32.0 size=    2419kB time=00:00:42.30 bitrate= 468.4kbits/s dup=1 drop=0 speed=5.96x    frame= 1077 fps=142 q=32.0 size=    2601kB time=00:00:45.07 bitrate= 472.7kbits/s dup=1 drop=0 speed=5.93x    frame= 1142 fps=141 q=32.0 size=    2800kB time=00:00:47.76 bitrate= 480.2kbits/s dup=1 drop=0 speed= 5.9x    frame= 1208 fps=140 q=32.0 size=    3045kB time=00:00:50.53 bitrate= 493.5kbits/s dup=1 drop=0 speed=5.84x    frame= 1267 fps=138 q=32.0 size=    3273kB time=00:00:52.97 bitrate= 506.1kbits/s dup=1 drop=0 speed=5.78x    frame= 1358 fps=140 q=32.0 size=    3486kB time=00:00:56.81 bitrate= 502.7kbits/s dup=1 drop=0 speed=5.85x    frame= 1421 fps=139 q=32.0 size=    3745kB time=00:00:59.41 bitrate= 516.4kbits/s dup=1 drop=0 speed=5.82x    frame= 1472 fps=137 q=32.0 size=    3934kB time=00:01:01.54 bitrate= 523.6kbits/s dup=1 drop=0 speed=5.74x    frame= 1535 fps=137 q=32.0 size=    4167kB time=00:01:04.19 bitrate= 531.8kbits/s dup=1 drop=0 speed=5.72x    frame= 1611 fps=137 q=32.0 size=    4337kB time=00:01:07.35 bitrate= 527.5kbits/s dup=1 drop=0 speed=5.74x    frame= 1676 fps=137 q=32.0 size=    4543kB time=00:01:10.03 bitrate= 531.4kbits/s dup=1 drop=0 speed=5.71x    frame= 1738 fps=136 q=32.0 size=    4739kB time=00:01:12.64 bitrate= 534.5kbits/s dup=1 drop=0 speed=5.68x    frame= 1790 fps=134 q=32.0 size=    4954kB time=00:01:14.81 bitrate= 542.4kbits/s dup=1 drop=0 speed=5.62x    frame= 1831 fps=132 q=32.0 size=    5161kB time=00:01:16.52 bitrate= 552.5kbits/s dup=1 drop=0 speed=5.54x    frame= 1882 fps=131 q=32.0 size=    5391kB time=00:01:18.65 bitrate= 561.5kbits/s dup=1 drop=0 speed=5.49x    frame= 1920 fps=129 q=32.0 size=    5514kB time=00:01:20.23 bitrate= 563.0kbits/s dup=1 drop=0 speed=5.41x    frame= 1990 fps=130 q=32.0 size=    5664kB time=00:01:23.17 bitrate= 557.8kbits/s dup=1 drop=0 speed=5.43x    frame= 2067 fps=131 q=32.0 size=    5798kB time=00:01:26.37 bitrate= 549.9kbits/s dup=1 drop=0 speed=5.46x    frame= 2140 fps=131 q=32.0 size=    5954kB time=00:01:29.40 bitrate= 545.5kbits/s dup=1 drop=0 speed=5.48x    frame= 2343 fps=139 q=32.0 size=    6080kB time=00:01:37.85 bitrate= 509.0kbits/s dup=1 drop=0 speed=5.81x    frame= 2562 fps=148 q=32.0 size=    6181kB time=00:01:47.03 bitrate= 473.1kbits/s dup=1 drop=0 speed=6.17x    frame= 2730 fps=153 q=32.0 size=    6308kB time=00:01:54.02 bitrate= 453.2kbits/s dup=1 drop=0 speed=6.39x    frame= 2835 fps=155 q=32.0 size=    6429kB time=00:01:58.37 bitrate= 444.9kbits/s dup=1 drop=0 speed=6.45x    frame= 2901 fps=154 q=32.0 size=    6528kB time=00:02:01.15 bitrate= 441.4kbits/s dup=1 drop=0 speed=6.42x    frame= 2955 fps=153 q=32.0 size=    6614kB time=00:02:03.41 bitrate= 439.0kbits/s dup=1 drop=0 speed=6.37x    frame= 3016 fps=152 q=32.0 size=    6730kB time=00:02:05.93 bitrate= 437.8kbits/s dup=1 drop=0 speed=6.33x    frame= 3091 fps=152 q=32.0 size=    6817kB time=00:02:09.08 bitrate= 432.6kbits/s dup=1 drop=0 speed=6.33x    frame= 3161 fps=151 q=32.0 size=    6948kB time=00:02:11.99 bitrate= 431.2kbits/s dup=1 drop=0 speed=6.32x    frame= 3238 fps=151 q=32.0 size=    7025kB time=00:02:15.19 bitrate= 425.7kbits/s dup=1 drop=0 speed=6.32x    frame= 3311 fps=151 q=32.0 size=    7127kB time=00:02:18.26 bitrate= 422.3kbits/s dup=1 drop=0 speed=6.32x    frame= 3388 fps=151 q=32.0 size=    7198kB time=00:02:21.46 bitrate= 416.8kbits/s dup=1 drop=0 speed=6.32x    frame= 3455 fps=151 q=32.0 size=    7279kB time=00:02:24.27 bitrate= 413.3kbits/s dup=1 drop=0 speed= 6.3x    frame= 3528 fps=151 q=32.0 size=    7385kB time=00:02:27.30 bitrate= 410.7kbits/s dup=1 drop=0 speed=6.29x    frame= 3589 fps=150 q=32.0 size=    7466kB time=00:02:29.86 bitrate= 408.1kbits/s dup=1 drop=0 speed=6.26x    frame= 3642 fps=149 q=32.0 size=    7556kB time=00:02:32.04 bitrate= 407.1kbits/s dup=1 drop=0 speed=6.22x    frame= 3704 fps=148 q=32.0 size=    7669kB time=00:02:34.64 bitrate= 406.3kbits/s dup=1 drop=0 speed=6.19x    frame= 3762 fps=148 q=32.0 size=    7740kB time=00:02:37.03 bitrate= 403.8kbits/s dup=1 drop=0 speed=6.17x    frame= 3830 fps=147 q=32.0 size=    7862kB time=00:02:39.89 bitrate= 402.8kbits/s dup=1 drop=0 speed=6.16x    frame= 3891 fps=147 q=32.0 size=    7951kB time=00:02:42.45 bitrate= 401.0kbits/s dup=1 drop=0 speed=6.13x    frame= 3943 fps=146 q=32.0 size=    8041kB time=00:02:44.63 bitrate= 400.1kbits/s dup=1 drop=0 speed=6.09x    frame= 4001 fps=145 q=32.0 size=    8101kB time=00:02:47.01 bitrate= 397.3kbits/s dup=1 drop=0 speed=6.07x    frame= 4049 fps=145 q=32.0 size=    8159kB time=00:02:49.02 bitrate= 395.5kbits/s dup=1 drop=0 speed=6.03x    frame= 4113 fps=144 q=32.0 size=    8218kB time=00:02:51.71 bitrate= 392.1kbits/s dup=1 drop=0 speed=6.02x    frame= 4165 fps=143 q=32.0 size=    8296kB time=00:02:53.88 bitrate= 390.8kbits/s dup=1 drop=0 speed=5.99x    frame= 4214 fps=143 q=32.0 size=    8419kB time=00:02:55.89 bitrate= 392.1kbits/s dup=1 drop=0 speed=5.96x    frame= 4253 fps=142 q=32.0 size=    8498kB time=00:02:57.55 bitrate= 392.1kbits/s dup=1 drop=0 speed=5.91x    frame= 4309 fps=141 q=32.0 size=    8571kB time=00:02:59.86 bitrate= 390.4kbits/s dup=1 drop=0 speed=5.89x    frame= 4367 fps=141 q=32.0 size=    8634kB time=00:03:02.29 bitrate= 388.0kbits/s dup=1 drop=0 speed=5.87x    frame= 4421 fps=140 q=32.0 size=    8771kB time=00:03:04.55 bitrate= 389.3kbits/s dup=1 drop=0 speed=5.85x    frame= 4485 fps=140 q=32.0 size=    8846kB time=00:03:07.24 bitrate= 387.0kbits/s dup=1 drop=0 speed=5.84x    frame= 4541 fps=140 q=32.0 size=    8931kB time=00:03:09.54 bitrate= 386.0kbits/s dup=1 drop=0 speed=5.82x    frame= 4588 fps=139 q=32.0 size=    8993kB time=00:03:11.51 bitrate= 384.7kbits/s dup=1 drop=0 speed=5.79x    frame= 4645 fps=138 q=32.0 size=    9074kB time=00:03:13.89 bitrate= 383.4kbits/s dup=1 drop=0 speed=5.78x    frame= 4684 fps=137 q=32.0 size=    9140kB time=00:03:15.52 bitrate= 382.9kbits/s dup=1 drop=0 speed=5.74x    frame= 4720 fps=136 q=32.0 size=    9224kB time=00:03:17.01 bitrate= 383.5kbits/s dup=1 drop=0 speed=5.69x    frame= 4757 fps=135 q=32.0 size=    9288kB time=00:03:18.59 bitrate= 383.1kbits/s dup=1 drop=0 speed=5.65x    frame= 4799 fps=135 q=32.0 size=    9358kB time=00:03:20.34 bitrate= 382.6kbits/s dup=1 drop=0 speed=5.62x    frame= 4828 fps=134 q=32.0 size=    9403kB time=00:03:21.53 bitrate= 382.2kbits/s dup=1 drop=0 speed=5.58x    frame= 4870 fps=133 q=32.0 size=    9475kB time=00:03:23.28 bitrate= 381.8kbits/s dup=1 drop=0 speed=5.54x    frame= 4918 fps=132 q=32.0 size=    9571kB time=00:03:25.29 bitrate= 381.9kbits/s dup=1 drop=0 speed=5.52x    frame= 4967 fps=132 q=32.0 size=    9651kB time=00:03:27.33 bitrate= 381.3kbits/s dup=1 drop=0 speed= 5.5x    frame= 5009 fps=131 q=32.0 size=    9717kB time=00:03:29.08 bitrate= 380.7kbits/s dup=1 drop=0 speed=5.47x    frame= 5078 fps=131 q=32.0 size=    9822kB time=00:03:31.94 bitrate= 379.6kbits/s dup=1 drop=0 speed=5.47x    frame= 5159 fps=131 q=32.0 size=    9880kB time=00:03:35.31 bitrate= 375.9kbits/s dup=1 drop=0 speed=5.48x    frame= 5238 fps=132 q=32.0 size=    9946kB time=00:03:38.60 bitrate= 372.7kbits/s dup=1 drop=0 speed= 5.5x    frame= 5290 fps=131 q=32.0 size=   10037kB time=00:03:40.77 bitrate= 372.4kbits/s dup=1 drop=0 speed=5.48x    frame= 5351 fps=131 q=32.0 size=   10145kB time=00:03:43.33 bitrate= 372.1kbits/s dup=1 drop=0 speed=5.47x    frame= 5398 fps=131 q=32.0 size=   10283kB time=00:03:45.30 bitrate= 373.9kbits/s dup=1 drop=0 speed=5.45x    frame= 5462 fps=130 q=32.0 size=   10367kB time=00:03:47.99 bitrate= 372.5kbits/s dup=1 drop=0 speed=5.45x    frame= 5532 fps=131 q=32.0 size=   10454kB time=00:03:50.89 bitrate= 370.9kbits/s dup=1 drop=0 speed=5.45x    frame= 5582 fps=130 q=32.0 size=   10536kB time=00:03:52.98 bitrate= 370.5kbits/s dup=1 drop=0 speed=5.43x    frame= 5650 fps=130 q=32.0 size=   10604kB time=00:03:55.79 bitrate= 368.4kbits/s dup=1 drop=0 speed=5.43x    frame= 5708 fps=130 q=32.0 size=   10698kB time=00:03:58.23 bitrate= 367.9kbits/s dup=1 drop=0 speed=5.43x    frame= 5763 fps=130 q=32.0 size=   10776kB time=00:04:00.53 bitrate= 367.0kbits/s dup=1 drop=0 speed=5.42x    frame= 5826 fps=130 q=32.0 size=   10864kB time=00:04:03.13 bitrate= 366.0kbits/s dup=1 drop=0 speed=5.42x    frame= 5888 fps=130 q=32.0 size=   10914kB time=00:04:05.73 bitrate= 363.8kbits/s dup=1 drop=0 speed=5.41x    frame= 5926 fps=129 q=32.0 size=   11035kB time=00:04:07.36 bitrate= 365.4kbits/s dup=1 drop=0 speed=5.38x    frame= 5982 fps=129 q=32.0 size=   11130kB time=00:04:09.66 bitrate= 365.2kbits/s dup=1 drop=0 speed=5.38x    frame= 6016 fps=128 q=32.0 size=   11198kB time=00:04:11.07 bitrate= 365.4kbits/s dup=1 drop=0 speed=5.35x    frame= 6064 fps=128 q=32.0 size=   11272kB time=00:04:13.07 bitrate= 364.9kbits/s dup=1 drop=0 speed=5.33x    frame= 6111 fps=127 q=32.0 size=   11331kB time=00:04:15.04 bitrate= 364.0kbits/s dup=1 drop=0 speed=5.32x    frame= 6158 fps=127 q=32.0 size=   11411kB time=00:04:17.00 bitrate= 363.7kbits/s dup=1 drop=0 speed= 5.3x    frame= 6207 fps=127 q=32.0 size=   11495kB time=00:04:19.05 bitrate= 363.5kbits/s dup=1 drop=0 speed=5.29x    frame= 6257 fps=126 q=32.0 size=   11567kB time=00:04:21.09 bitrate= 362.9kbits/s dup=1 drop=0 speed=5.28x    frame= 6302 fps=126 q=32.0 size=   11640kB time=00:04:23.01 bitrate= 362.6kbits/s dup=1 drop=0 speed=5.26x    frame= 6364 fps=126 q=32.0 size=   11775kB time=00:04:25.57 bitrate= 363.2kbits/s dup=1 drop=0 speed=5.26x    frame= 6437 fps=126 q=32.0 size=   11930kB time=00:04:28.60 bitrate= 363.8kbits/s dup=1 drop=0 speed=5.26x    frame= 6505 fps=126 q=32.0 size=   12110kB time=00:04:31.46 bitrate= 365.5kbits/s dup=1 drop=0 speed=5.27x    frame= 6580 fps=126 q=32.0 size=   12299kB time=00:04:34.62 bitrate= 366.9kbits/s dup=1 drop=0 speed=5.28x    frame= 6711 fps=128 q=32.0 size=   12462kB time=00:04:40.08 bitrate= 364.5kbits/s dup=1 drop=0 speed=5.33x    frame= 6823 fps=129 q=32.0 size=   12598kB time=00:04:44.73 bitrate= 362.5kbits/s dup=1 drop=0 speed=5.37x    frame= 6919 fps=129 q=32.0 size=   12718kB time=00:04:48.74 bitrate= 360.8kbits/s dup=1 drop=0 speed=5.39x    frame= 7014 fps=130 q=32.0 size=   12904kB time=00:04:52.71 bitrate= 361.1kbits/s dup=1 drop=0 speed=5.41x    frame= 7077 fps=130 q=32.0 size=   13088kB time=00:04:55.31 bitrate= 363.1kbits/s dup=1 drop=0 speed=5.41x    frame= 7192 fps=131 q=32.0 size=   13254kB time=00:05:00.13 bitrate= 361.8kbits/s dup=1 drop=0 speed=5.45x    frame= 7284 fps=131 q=32.0 size=   13369kB time=00:05:03.97 bitrate= 360.3kbits/s dup=1 drop=0 speed=5.47x    frame= 7392 fps=132 q=32.0 size=   13527kB time=00:05:08.45 bitrate= 359.2kbits/s dup=1 drop=0 speed= 5.5x    frame= 7520 fps=133 q=32.0 size=   13643kB time=00:05:13.79 bitrate= 356.2kbits/s dup=1 drop=0 speed=5.54x    frame= 7624 fps=134 q=32.0 size=   13819kB time=00:05:18.14 bitrate= 355.8kbits/s dup=1 drop=0 speed=5.57x    frame= 7718 fps=134 q=32.0 size=   13926kB time=00:05:22.07 bitrate= 354.2kbits/s dup=1 drop=0 speed=5.59x    frame= 7819 fps=135 q=32.0 size=   14086kB time=00:05:26.29 bitrate= 353.7kbits/s dup=1 drop=0 speed=5.61x    frame= 7910 fps=135 q=32.0 size=   14207kB time=00:05:30.09 bitrate= 352.6kbits/s dup=1 drop=0 speed=5.63x    frame= 8025 fps=136 q=32.0 size=   14341kB time=00:05:34.87 bitrate= 350.8kbits/s dup=1 drop=0 speed=5.66x    frame= 8125 fps=136 q=32.0 size=   14529kB time=00:05:39.05 bitrate= 351.0kbits/s dup=1 drop=0 speed=5.69x    frame= 8221 fps=137 q=32.0 size=   14646kB time=00:05:43.06 bitrate= 349.7kbits/s dup=1 drop=0 speed=5.71x    frame= 8311 fps=137 q=32.0 size=   14781kB time=00:05:46.81 bitrate= 349.1kbits/s dup=1 drop=0 speed=5.72x    frame= 8409 fps=138 q=32.0 size=   14902kB time=00:05:50.87 bitrate= 347.9kbits/s dup=1 drop=0 speed=5.74x    frame= 8497 fps=138 q=32.0 size=   15040kB time=00:05:54.53 bitrate= 347.5kbits/s dup=1 drop=0 speed=5.75x    frame= 8604 fps=138 q=32.0 size=   15206kB time=00:05:58.97 bitrate= 347.0kbits/s dup=1 drop=0 speed=5.78x    frame= 8707 fps=139 q=32.0 size=   15337kB time=00:06:03.32 bitrate= 345.8kbits/s dup=1 drop=0 speed= 5.8x    frame= 8811 fps=139 q=32.0 size=   15496kB time=00:06:07.63 bitrate= 345.3kbits/s dup=1 drop=0 speed=5.82x    frame= 8919 fps=140 q=32.0 size=   15637kB time=00:06:12.16 bitrate= 344.2kbits/s dup=1 drop=0 speed=5.85x    frame= 9046 fps=141 q=32.0 size=   15770kB time=00:06:17.45 bitrate= 342.3kbits/s dup=1 drop=0 speed=5.88x    frame= 9164 fps=142 q=32.0 size=   15930kB time=00:06:22.35 bitrate= 341.3kbits/s dup=1 drop=0 speed=5.91x    frame= 9270 fps=142 q=32.0 size=   16089kB time=00:06:26.79 bitrate= 340.7kbits/s dup=1 drop=0 speed=5.94x    frame= 9352 fps=142 q=32.0 size=   16242kB time=00:06:30.20 bitrate= 341.0kbits/s dup=1 drop=0 speed=5.94x    frame= 9426 fps=142 q=32.0 size=   16344kB time=00:06:33.32 bitrate= 340.4kbits/s dup=1 drop=0 speed=5.94x    frame= 9501 fps=142 q=32.0 size=   16447kB time=00:06:36.43 bitrate= 339.9kbits/s dup=1 drop=0 speed=5.94x    frame= 9583 fps=143 q=32.0 size=   16578kB time=00:06:39.85 bitrate= 339.6kbits/s dup=1 drop=0 speed=5.95x    frame= 9704 fps=143 q=32.0 size=   16701kB time=00:06:44.88 bitrate= 337.9kbits/s dup=1 drop=0 speed=5.98x    frame= 9763 fps=143 q=32.0 size=   16802kB time=00:06:47.36 bitrate= 337.9kbits/s dup=1 drop=0 speed=5.97x    frame= 9843 fps=143 q=32.0 size=   16913kB time=00:06:50.68 bitrate= 337.4kbits/s dup=1 drop=0 speed=5.98x    frame= 9932 fps=144 q=32.0 size=   16989kB time=00:06:54.40 bitrate= 335.8kbits/s dup=1 drop=0 speed=5.99x    frame=10000 fps=143 q=32.0 size=   17166kB time=00:06:57.25 bitrate= 337.0kbits/s dup=1 drop=0 speed=5.99x    frame=10068 fps=143 q=32.0 size=   17343kB time=00:07:00.07 bitrate= 338.2kbits/s dup=1 drop=0 speed=5.98x    frame=10148 fps=144 q=32.0 size=   17494kB time=00:07:03.40 bitrate= 338.5kbits/s dup=1 drop=0 speed=5.99x    frame=10194 fps=143 q=32.0 size=   17594kB time=00:07:05.32 bitrate= 338.9kbits/s dup=1 drop=0 speed=5.97x    frame=10237 fps=143 q=32.0 size=   17676kB time=00:07:07.11 bitrate= 339.0kbits/s dup=1 drop=0 speed=5.96x    frame=10286 fps=142 q=32.0 size=   17752kB time=00:07:09.16 bitrate= 338.9kbits/s dup=1 drop=0 speed=5.94x    frame=10369 fps=143 q=32.0 size=   17858kB time=00:07:12.61 bitrate= 338.2kbits/s dup=1 drop=0 speed=5.95x    frame=10458 fps=143 q=32.0 size=   17935kB time=00:07:16.33 bitrate= 336.7kbits/s dup=1 drop=0 speed=5.96x    frame=10542 fps=143 q=32.0 size=   18036kB time=00:07:19.83 bitrate= 335.9kbits/s dup=1 drop=0 speed=5.97x    frame=10615 fps=143 q=32.0 size=   18111kB time=00:07:22.90 bitrate= 335.0kbits/s dup=1 drop=0 speed=5.97x    frame=10663 fps=143 q=32.0 size=   18252kB time=00:07:24.90 bitrate= 336.1kbits/s dup=1 drop=0 speed=5.95x    frame=10719 fps=142 q=32.0 size=   18361kB time=00:07:27.25 bitrate= 336.3kbits/s dup=1 drop=0 speed=5.94x    frame=10775 fps=142 q=32.0 size=   18488kB time=00:07:29.55 bitrate= 336.9kbits/s dup=1 drop=0 speed=5.93x    frame=10861 fps=142 q=32.0 size=   18585kB time=00:07:33.14 bitrate= 336.0kbits/s dup=1 drop=0 speed=5.94x    frame=10937 fps=142 q=32.0 size=   18702kB time=00:07:36.29 bitrate= 335.8kbits/s dup=1 drop=0 speed=5.94x    frame=11020 fps=143 q=32.0 size=   18809kB time=00:07:39.79 bitrate= 335.1kbits/s dup=1 drop=0 speed=5.95x    frame=11082 fps=142 q=32.0 size=   18908kB time=00:07:42.40 bitrate= 335.0kbits/s dup=1 drop=0 speed=5.94x    frame=11161 fps=143 q=32.0 size=   19008kB time=00:07:45.68 bitrate= 334.4kbits/s dup=1 drop=0 speed=5.95x    frame=11225 fps=142 q=32.0 size=   19115kB time=00:07:48.33 bitrate= 334.3kbits/s dup=1 drop=0 speed=5.94x    frame=11305 fps=143 q=32.0 size=   19178kB time=00:07:51.65 bitrate= 333.1kbits/s dup=1 drop=0 speed=5.95x    frame=11375 fps=143 q=32.0 size=   19234kB time=00:07:54.60 bitrate= 332.0kbits/s dup=1 drop=0 speed=5.95x    frame=11441 fps=142 q=32.0 size=   19334kB time=00:07:57.33 bitrate= 331.8kbits/s dup=1 drop=0 speed=5.94x    frame=11498 fps=142 q=32.0 size=   19422kB time=00:07:59.72 bitrate= 331.7kbits/s dup=1 drop=0 speed=5.93x    frame=11563 fps=142 q=32.0 size=   19514kB time=00:08:02.41 bitrate= 331.4kbits/s dup=1 drop=0 speed=5.93x    frame=11620 fps=142 q=32.0 size=   19585kB time=00:08:04.80 bitrate= 330.9kbits/s dup=1 drop=0 speed=5.92x    frame=11677 fps=142 q=32.0 size=   19649kB time=00:08:07.19 bitrate= 330.4kbits/s dup=1 drop=0 speed=5.91x    frame=11742 fps=142 q=32.0 size=   19746kB time=00:08:09.87 bitrate= 330.2kbits/s dup=1 drop=0 speed= 5.9x    frame=11807 fps=141 q=32.0 size=   19841kB time=00:08:12.60 bitrate= 330.0kbits/s dup=1 drop=0 speed= 5.9x    frame=11875 fps=141 q=32.0 size=   19905kB time=00:08:15.46 bitrate= 329.1kbits/s dup=1 drop=0 speed= 5.9x    frame=11953 fps=141 q=32.0 size=   19998kB time=00:08:18.71 bitrate= 328.5kbits/s dup=1 drop=0 speed= 5.9x    frame=12033 fps=142 q=32.0 size=   20051kB time=00:08:21.99 bitrate= 327.2kbits/s dup=1 drop=0 speed=5.91x    frame=12080 fps=141 q=32.0 size=   20175kB time=00:08:24.04 bitrate= 327.9kbits/s dup=1 drop=0 speed= 5.9x    frame=12134 fps=141 q=32.0 size=   20260kB time=00:08:26.26 bitrate= 327.8kbits/s dup=1 drop=0 speed=5.89x    frame=12168 fps=141 q=32.0 size=   20349kB time=00:08:27.67 bitrate= 328.4kbits/s dup=1 drop=0 speed=5.87x    frame=12210 fps=140 q=32.0 size=   20444kB time=00:08:29.41 bitrate= 328.8kbits/s dup=1 drop=0 speed=5.85x    frame=12264 fps=140 q=32.0 size=   20529kB time=00:08:31.68 bitrate= 328.7kbits/s dup=1 drop=0 speed=5.85x    frame=12328 fps=140 q=32.0 size=   20632kB time=00:08:34.32 bitrate= 328.6kbits/s dup=1 drop=0 speed=5.84x    frame=12404 fps=140 q=32.0 size=   20700kB time=00:08:37.52 bitrate= 327.7kbits/s dup=1 drop=0 speed=5.85x    frame=12468 fps=140 q=32.0 size=   20796kB time=00:08:40.17 bitrate= 327.5kbits/s dup=1 drop=0 speed=5.84x    frame=12546 fps=140 q=32.0 size=   20861kB time=00:08:43.45 bitrate= 326.5kbits/s dup=1 drop=0 speed=5.84x    frame=12631 fps=140 q=32.0 size=   20952kB time=00:08:46.95 bitrate= 325.7kbits/s dup=1 drop=0 speed=5.85x    frame=12721 fps=140 q=32.0 size=   21026kB time=00:08:50.71 bitrate= 324.5kbits/s dup=1 drop=0 speed=5.86x    frame=12788 fps=140 q=32.0 size=   21123kB time=00:08:53.52 bitrate= 324.3kbits/s dup=1 drop=0 speed=5.85x    frame=12847 fps=140 q=32.0 size=   21224kB time=00:08:56.00 bitrate= 324.4kbits/s dup=1 drop=0 speed=5.85x    frame=12910 fps=140 q=32.0 size=   21316kB time=00:08:58.60 bitrate= 324.2kbits/s dup=1 drop=0 speed=5.85x    frame=12989 fps=140 q=32.0 size=   21386kB time=00:09:01.93 bitrate= 323.3kbits/s dup=1 drop=0 speed=5.85x    frame=13067 fps=140 q=32.0 size=   21480kB time=00:09:05.17 bitrate= 322.8kbits/s dup=1 drop=0 speed=5.85x    frame=13144 fps=140 q=32.0 size=   21553kB time=00:09:08.41 bitrate= 322.0kbits/s dup=1 drop=0 speed=5.86x    frame=13207 fps=140 q=32.0 size=   21639kB time=00:09:10.97 bitrate= 321.7kbits/s dup=1 drop=0 speed=5.85x    frame=13281 fps=140 q=32.0 size=   21724kB time=00:09:14.09 bitrate= 321.2kbits/s dup=1 drop=0 speed=5.85x    frame=13342 fps=140 q=32.0 size=   21791kB time=00:09:16.65 bitrate= 320.7kbits/s dup=1 drop=0 speed=5.85x    frame=13393 fps=140 q=32.0 size=   21884kB time=00:09:18.78 bitrate= 320.8kbits/s dup=1 drop=0 speed=5.84x    frame=13420 fps=140 q=32.0 size=   21981kB time=00:09:19.89 bitrate= 321.6kbits/s dup=1 drop=0 speed=5.82x    frame=13470 fps=139 q=32.0 size=   22108kB time=00:09:21.94 bitrate= 322.3kbits/s dup=1 drop=0 speed=5.81x    frame=13506 fps=139 q=32.0 size=   22136kB time=00:09:23.47 bitrate= 321.8kbits/s dup=1 drop=0 speed= 5.8x    frame=13554 fps=139 q=32.0 size=   22235kB time=00:09:25.48 bitrate= 322.1kbits/s dup=1 drop=0 speed=5.78x    frame=13599 fps=138 q=32.0 size=   22322kB time=00:09:27.36 bitrate= 322.3kbits/s dup=1 drop=0 speed=5.77x    frame=13632 fps=138 q=32.0 size=   22415kB time=00:09:28.72 bitrate= 322.9kbits/s dup=1 drop=0 speed=5.76x    frame=13673 fps=138 q=32.0 size=   22542kB time=00:09:30.43 bitrate= 323.7kbits/s dup=1 drop=0 speed=5.74x    frame=13720 fps=137 q=32.0 size=   22679kB time=00:09:32.39 bitrate= 324.6kbits/s dup=1 drop=0 speed=5.74x    frame=13758 fps=137 q=32.0 size=   22767kB time=00:09:33.97 bitrate= 324.9kbits/s dup=1 drop=0 speed=5.72x    frame=13813 fps=137 q=32.0 size=   22858kB time=00:09:36.27 bitrate= 324.9kbits/s dup=1 drop=0 speed=5.72x    frame=13877 fps=137 q=32.0 size=   22955kB time=00:09:38.96 bitrate= 324.8kbits/s dup=1 drop=0 speed=5.71x    frame=13917 fps=137 q=32.0 size=   23066kB time=00:09:40.58 bitrate= 325.5kbits/s dup=1 drop=0 speed= 5.7x    frame=13965 fps=136 q=32.0 size=   23122kB time=00:09:42.63 bitrate= 325.1kbits/s dup=1 drop=0 speed=5.69x    frame=14056 fps=137 q=32.0 size=   23352kB time=00:09:46.43 bitrate= 326.2kbits/s dup=1 drop=0 speed= 5.7x    frame=14134 fps=137 q=32.0 size=   23552kB time=00:09:49.67 bitrate= 327.2kbits/s dup=1 drop=0 speed= 5.7x    frame=14226 fps=137 q=32.0 size=   23765kB time=00:09:53.51 bitrate= 328.0kbits/s dup=1 drop=0 speed=5.71x    frame=14319 fps=137 q=32.0 size=   23954kB time=00:09:57.39 bitrate= 328.5kbits/s dup=1 drop=0 speed=5.72x    frame=14434 fps=138 q=32.0 size=   24134kB time=00:10:02.17 bitrate= 328.3kbits/s dup=1 drop=0 speed=5.74x    frame=14563 fps=138 q=32.0 size=   24266kB time=00:10:07.55 bitrate= 327.2kbits/s dup=1 drop=0 speed=5.76x    frame=14676 fps=139 q=32.0 size=   24427kB time=00:10:12.24 bitrate= 326.8kbits/s dup=1 drop=0 speed=5.78x    frame=14760 fps=139 q=32.0 size=   24559kB time=00:10:15.78 bitrate= 326.7kbits/s dup=1 drop=0 speed=5.79x    frame=14838 fps=139 q=32.0 size=   24702kB time=00:10:19.03 bitrate= 326.9kbits/s dup=1 drop=0 speed=5.79x    frame=14906 fps=139 q=32.0 size=   24866kB time=00:10:21.84 bitrate= 327.6kbits/s dup=1 drop=0 speed=5.79x    frame=15046 fps=139 q=32.0 size=   24997kB time=00:10:27.69 bitrate= 326.2kbits/s dup=1 drop=0 speed=5.82x    frame=15170 fps=140 q=32.0 size=   25153kB time=00:10:32.85 bitrate= 325.6kbits/s dup=1 drop=0 speed=5.84x    frame=15290 fps=140 q=32.0 size=   25295kB time=00:10:37.88 bitrate= 324.8kbits/s dup=1 drop=0 speed=5.86x    frame=15410 fps=141 q=32.0 size=   25471kB time=00:10:42.88 bitrate= 324.6kbits/s dup=1 drop=0 speed=5.87x    frame=15486 fps=141 q=32.0 size=   25607kB time=00:10:46.03 bitrate= 324.7kbits/s dup=1 drop=0 speed=5.88x    frame=15591 fps=141 q=32.0 size=   25777kB time=00:10:50.43 bitrate= 324.7kbits/s dup=1 drop=0 speed=5.89x    frame=15712 fps=142 q=32.0 size=   25937kB time=00:10:55.46 bitrate= 324.2kbits/s dup=1 drop=0 speed=5.91x    frame=15809 fps=142 q=32.0 size=   26072kB time=00:10:59.52 bitrate= 323.8kbits/s dup=1 drop=0 speed=5.92x    frame=15888 fps=142 q=32.0 size=   26191kB time=00:11:02.80 bitrate= 323.7kbits/s dup=1 drop=0 speed=5.92x    frame=16031 fps=143 q=32.0 size=   26322kB time=00:11:08.77 bitrate= 322.4kbits/s dup=1 drop=0 speed=5.95x    frame=16163 fps=143 q=32.0 size=   26428kB time=00:11:14.28 bitrate= 321.1kbits/s dup=1 drop=0 speed=5.97x    frame=16228 fps=143 q=32.0 size=   26578kB time=00:11:16.97 bitrate= 321.6kbits/s dup=1 drop=0 speed=5.97x    frame=16289 fps=143 q=32.0 size=   26714kB time=00:11:19.53 bitrate= 322.1kbits/s dup=1 drop=0 speed=5.96x    frame=16354 fps=143 q=32.0 size=   26841kB time=00:11:22.21 bitrate= 322.3kbits/s dup=1 drop=0 speed=5.96x    frame=16423 fps=143 q=32.0 size=   26978kB time=00:11:25.12 bitrate= 322.6kbits/s dup=1 drop=0 speed=5.96x    frame=16489 fps=143 q=32.0 size=   27099kB time=00:11:27.89 bitrate= 322.7kbits/s dup=1 drop=0 speed=5.96x    frame=16577 fps=143 q=32.0 size=   27277kB time=00:11:31.56 bitrate= 323.1kbits/s dup=1 drop=0 speed=5.96x    frame=16675 fps=143 q=32.0 size=   27426kB time=00:11:35.65 bitrate= 323.0kbits/s dup=1 drop=0 speed=5.97x    frame=16793 fps=144 q=32.0 size=   27617kB time=00:11:40.56 bitrate= 322.9kbits/s dup=1 drop=0 speed=5.99x    frame=16909 fps=144 q=32.0 size=   27736kB time=00:11:45.38 bitrate= 322.1kbits/s dup=1 drop=0 speed=   6x    frame=17014 fps=144 q=32.0 size=   27887kB time=00:11:49.78 bitrate= 321.9kbits/s dup=1 drop=0 speed=6.02x    frame=17122 fps=145 q=32.0 size=   28012kB time=00:11:54.30 bitrate= 321.3kbits/s dup=1 drop=0 speed=6.03x    frame=17244 fps=145 q=32.0 size=   28160kB time=00:11:59.38 bitrate= 320.7kbits/s dup=1 drop=0 speed=6.05x    frame=17337 fps=145 q=32.0 size=   28339kB time=00:12:03.26 bitrate= 321.0kbits/s dup=1 drop=0 speed=6.05x    frame=17454 fps=145 q=32.0 size=   28454kB time=00:12:08.12 bitrate= 320.1kbits/s dup=1 drop=0 speed=6.07x    frame=17565 fps=146 q=32.0 size=   28633kB time=00:12:12.77 bitrate= 320.1kbits/s dup=1 drop=0 speed=6.08x    frame=17645 fps=146 q=32.0 size=   28811kB time=00:12:16.10 bitrate= 320.6kbits/s dup=1 drop=0 speed=6.08x    frame=17733 fps=146 q=32.0 size=   28985kB time=00:12:19.81 bitrate= 320.9kbits/s dup=1 drop=0 speed=6.09x    frame=17811 fps=146 q=32.0 size=   29154kB time=00:12:23.01 bitrate= 321.4kbits/s dup=1 drop=0 speed=6.09x    frame=17896 fps=146 q=32.0 size=   29317kB time=00:12:26.56 bitrate= 321.7kbits/s dup=1 drop=0 speed=6.09x    frame=17946 fps=146 q=32.0 size=   29408kB time=00:12:28.65 bitrate= 321.8kbits/s dup=1 drop=0 speed=6.09x    frame=17996 fps=146 q=32.0 size=   29494kB time=00:12:30.74 bitrate= 321.8kbits/s dup=1 drop=0 speed=6.08x    frame=18046 fps=145 q=32.0 size=   29584kB time=00:12:32.83 bitrate= 321.9kbits/s dup=1 drop=0 speed=6.07x    frame=18117 fps=145 q=32.0 size=   29703kB time=00:12:35.77 bitrate= 322.0kbits/s dup=1 drop=0 speed=6.07x    frame=18199 fps=146 q=32.0 size=   29805kB time=00:12:39.23 bitrate= 321.6kbits/s dup=1 drop=0 speed=6.07x    frame=18273 fps=146 q=32.0 size=   29923kB time=00:12:42.30 bitrate= 321.6kbits/s dup=1 drop=0 speed=6.07x    frame=18327 fps=145 q=32.0 size=   30017kB time=00:12:44.52 bitrate= 321.6kbits/s dup=1 drop=0 speed=6.06x    frame=18399 fps=145 q=32.0 size=   30112kB time=00:12:47.55 bitrate= 321.4kbits/s dup=1 drop=0 speed=6.06x    frame=18486 fps=145 q=32.0 size=   30231kB time=00:12:51.17 bitrate= 321.1kbits/s dup=1 drop=0 speed=6.07x    frame=18568 fps=146 q=32.0 size=   30306kB time=00:12:54.59 bitrate= 320.5kbits/s dup=1 drop=0 speed=6.07x    frame=18611 fps=145 q=32.0 size=   30397kB time=00:12:56.38 bitrate= 320.7kbits/s dup=1 drop=0 speed=6.06x    frame=18661 fps=145 q=32.0 size=   30467kB time=00:12:58.47 bitrate= 320.6kbits/s dup=1 drop=0 speed=6.05x    frame=18714 fps=145 q=32.0 size=   30559kB time=00:13:00.69 bitrate= 320.7kbits/s dup=1 drop=0 speed=6.05x    frame=18763 fps=145 q=32.0 size=   30639kB time=00:13:02.74 bitrate= 320.7kbits/s dup=1 drop=0 speed=6.04x    frame=18812 fps=145 q=32.0 size=   30724kB time=00:13:04.79 bitrate= 320.7kbits/s dup=1 drop=0 speed=6.03x    frame=18856 fps=144 q=32.0 size=   30790kB time=00:13:06.62 bitrate= 320.7kbits/s dup=1 drop=0 speed=6.02x    frame=18889 fps=144 q=32.0 size=   30896kB time=00:13:07.99 bitrate= 321.2kbits/s dup=1 drop=0 speed=6.01x    frame=18937 fps=144 q=32.0 size=   31005kB time=00:13:09.99 bitrate= 321.5kbits/s dup=1 drop=0 speed=   6x    frame=18999 fps=144 q=32.0 size=   31074kB time=00:13:12.55 bitrate= 321.2kbits/s dup=1 drop=0 speed=5.99x    frame=19050 fps=143 q=32.0 size=   31174kB time=00:13:14.73 bitrate= 321.3kbits/s dup=1 drop=0 speed=5.99x    frame=19100 fps=143 q=32.0 size=   31258kB time=00:13:16.77 bitrate= 321.4kbits/s dup=1 drop=0 speed=5.98x    frame=19145 fps=143 q=32.0 size=   31350kB time=00:13:18.65 bitrate= 321.6kbits/s dup=1 drop=0 speed=5.97x    frame=19226 fps=143 q=32.0 size=   31427kB time=00:13:22.07 bitrate= 321.0kbits/s dup=1 drop=0 speed=5.97x    frame=19306 fps=143 q=32.0 size=   31511kB time=00:13:25.39 bitrate= 320.5kbits/s dup=1 drop=0 speed=5.98x    frame=19381 fps=143 q=32.0 size=   31584kB time=00:13:28.51 bitrate= 320.0kbits/s dup=1 drop=0 speed=5.98x    frame=19447 fps=143 q=32.0 size=   31697kB time=00:13:31.24 bitrate= 320.1kbits/s dup=1 drop=0 speed=5.97x    frame=19501 fps=143 q=32.0 size=   31788kB time=00:13:33.50 bitrate= 320.1kbits/s dup=1 drop=0 speed=5.97x    frame=19566 fps=143 q=32.0 size=   31852kB time=00:13:36.23 bitrate= 319.7kbits/s dup=1 drop=0 speed=5.97x    frame=19600 fps=143 q=32.0 size=   31987kB time=00:13:37.64 bitrate= 320.5kbits/s dup=1 drop=0 speed=5.95x    frame=19645 fps=142 q=32.0 size=   32083kB time=00:13:39.52 bitrate= 320.7kbits/s dup=1 drop=0 speed=5.94x    frame=19712 fps=142 q=32.0 size=   32155kB time=00:13:42.29 bitrate= 320.3kbits/s dup=1 drop=0 speed=5.94x    frame=19776 fps=142 q=32.0 size=   32255kB time=00:13:44.98 bitrate= 320.3kbits/s dup=1 drop=0 speed=5.94x    frame=19839 fps=142 q=32.0 size=   32322kB time=00:13:47.62 bitrate= 319.9kbits/s dup=1 drop=0 speed=5.94x    frame=19900 fps=142 q=32.0 size=   32385kB time=00:13:50.14 bitrate= 319.6kbits/s dup=1 drop=0 speed=5.93x    frame=19944 fps=142 q=32.0 size=   32482kB time=00:13:51.97 bitrate= 319.8kbits/s dup=1 drop=0 speed=5.92x    frame=19987 fps=142 q=32.0 size=   32558kB time=00:13:53.77 bitrate= 319.9kbits/s dup=1 drop=0 speed=5.92x    frame=20029 fps=142 q=32.0 size=   32618kB time=00:13:55.52 bitrate= 319.8kbits/s dup=1 drop=0 speed=5.91x    frame=20070 fps=141 q=32.0 size=   32671kB time=00:13:57.22 bitrate= 319.7kbits/s dup=1 drop=0 speed= 5.9x    frame=20128 fps=141 q=32.0 size=   32791kB time=00:13:59.65 bitrate= 319.9kbits/s dup=1 drop=0 speed=5.89x    frame=20198 fps=141 q=32.0 size=   32856kB time=00:14:02.60 bitrate= 319.4kbits/s dup=1 drop=0 speed=5.89x    frame=20270 fps=141 q=32.0 size=   32929kB time=00:14:05.59 bitrate= 319.0kbits/s dup=1 drop=0 speed=5.89x    frame=20326 fps=141 q=32.0 size=   33001kB time=00:14:07.89 bitrate= 318.8kbits/s dup=1 drop=0 speed=5.89x    frame=20360 fps=141 q=32.0 size=   33090kB time=00:14:09.34 bitrate= 319.2kbits/s dup=1 drop=0 speed=5.88x    frame=20399 fps=141 q=32.0 size=   33206kB time=00:14:10.96 bitrate= 319.7kbits/s dup=1 drop=0 speed=5.87x    frame=20441 fps=140 q=32.0 size=   33291kB time=00:14:12.71 bitrate= 319.8kbits/s dup=1 drop=0 speed=5.86x    frame=20507 fps=140 q=32.0 size=   33400kB time=00:14:15.48 bitrate= 319.8kbits/s dup=1 drop=0 speed=5.86x    frame=20590 fps=141 q=32.0 size=   33466kB time=00:14:18.94 bitrate= 319.2kbits/s dup=1 drop=0 speed=5.86x    frame=20670 fps=141 q=32.0 size=   33523kB time=00:14:22.31 bitrate= 318.5kbits/s dup=1 drop=0 speed=5.86x    frame=20709 fps=140 q=32.0 size=   33615kB time=00:14:23.89 bitrate= 318.8kbits/s dup=1 drop=0 speed=5.86x    frame=20752 fps=140 q=32.0 size=   33690kB time=00:14:25.68 bitrate= 318.8kbits/s dup=1 drop=0 speed=5.85x    frame=20793 fps=140 q=32.0 size=   33761kB time=00:14:27.39 bitrate= 318.9kbits/s dup=1 drop=0 speed=5.84x    frame=20830 fps=140 q=32.0 size=   33836kB time=00:14:28.92 bitrate= 319.0kbits/s dup=1 drop=0 speed=5.83x    frame=20871 fps=140 q=32.0 size=   33909kB time=00:14:30.63 bitrate= 319.1kbits/s dup=1 drop=0 speed=5.82x    frame=20935 fps=139 q=32.0 size=   34019kB time=00:14:33.32 bitrate= 319.1kbits/s dup=1 drop=0 speed=5.82x    frame=20999 fps=139 q=32.0 size=   34104kB time=00:14:36.01 bitrate= 318.9kbits/s dup=1 drop=0 speed=5.82x    frame=21057 fps=139 q=32.0 size=   34181kB time=00:14:38.44 bitrate= 318.8kbits/s dup=1 drop=0 speed=5.81x    frame=21133 fps=139 q=32.0 size=   34272kB time=00:14:41.60 bitrate= 318.5kbits/s dup=1 drop=0 speed=5.81x    frame=21205 fps=139 q=32.0 size=   34335kB time=00:14:44.58 bitrate= 318.0kbits/s dup=1 drop=0 speed=5.81x    frame=21253 fps=139 q=32.0 size=   34436kB time=00:14:46.59 bitrate= 318.2kbits/s dup=1 drop=0 speed=5.81x    frame=21317 fps=139 q=32.0 size=   34518kB time=00:14:49.23 bitrate= 318.0kbits/s dup=1 drop=0 speed=5.81x    frame=21384 fps=139 q=32.0 size=   34600kB time=00:14:52.05 bitrate= 317.7kbits/s dup=1 drop=0 speed= 5.8x    frame=21463 fps=139 q=32.0 size=   34660kB time=00:14:55.33 bitrate= 317.1kbits/s dup=1 drop=0 speed=5.81x    frame=21539 fps=139 q=32.0 size=   34767kB time=00:14:58.49 bitrate= 317.0kbits/s dup=1 drop=0 speed=5.81x    frame=21612 fps=139 q=32.0 size=   34841kB time=00:15:01.56 bitrate= 316.6kbits/s dup=1 drop=0 speed=5.81x    frame=21660 fps=139 q=32.0 size=   34910kB time=00:15:03.53 bitrate= 316.5kbits/s dup=1 drop=0 speed= 5.8x    frame=21699 fps=139 q=32.0 size=   34992kB time=00:15:05.19 bitrate= 316.7kbits/s dup=1 drop=0 speed=5.79x    frame=21737 fps=139 q=32.0 size=   35093kB time=00:15:06.77 bitrate= 317.0kbits/s dup=1 drop=0 speed=5.79x    frame=21793 fps=139 q=32.0 size=   35175kB time=00:15:09.12 bitrate= 317.0kbits/s dup=1 drop=0 speed=5.78x    frame=21840 fps=138 q=32.0 size=   35283kB time=00:15:11.08 bitrate= 317.2kbits/s dup=1 drop=0 speed=5.78x    frame=21874 fps=138 q=32.0 size=   35377kB time=00:15:12.49 bitrate= 317.6kbits/s dup=1 drop=0 speed=5.77x    frame=21943 fps=138 q=32.0 size=   35596kB time=00:15:15.35 bitrate= 318.6kbits/s dup=1 drop=0 speed=5.77x    frame=22078 fps=139 q=32.0 size=   35739kB time=00:15:20.98 bitrate= 317.9kbits/s dup=1 drop=0 speed=5.78x    frame=22198 fps=139 q=32.0 size=   35940kB time=00:15:25.97 bitrate= 318.0kbits/s dup=1 drop=0 speed= 5.8x    frame=22320 fps=139 q=32.0 size=   36120kB time=00:15:31.09 bitrate= 317.8kbits/s dup=1 drop=0 speed=5.81x    frame=22478 fps=140 q=32.0 size=   36257kB time=00:15:37.66 bitrate= 316.8kbits/s dup=1 drop=0 speed=5.83x    frame=22592 fps=140 q=32.0 size=   36465kB time=00:15:42.44 bitrate= 317.0kbits/s dup=1 drop=0 speed=5.84x    frame=22687 fps=140 q=32.0 size=   36634kB time=00:15:46.41 bitrate= 317.1kbits/s dup=1 drop=0 speed=5.85x    frame=22791 fps=140 q=32.0 size=   36797kB time=00:15:50.72 bitrate= 317.1kbits/s dup=1 drop=0 speed=5.86x    frame=22941 fps=141 q=32.0 size=   36943kB time=00:15:56.99 bitrate= 316.2kbits/s dup=1 drop=0 speed=5.88x    frame=23011 fps=141 q=32.0 size=   37102kB time=00:15:59.89 bitrate= 316.6kbits/s dup=1 drop=0 speed=5.88x    frame=23079 fps=141 q=32.0 size=   37240kB time=00:16:02.75 bitrate= 316.9kbits/s dup=1 drop=0 speed=5.88x    frame=23181 fps=141 q=32.0 size=   37403kB time=00:16:07.01 bitrate= 316.9kbits/s dup=1 drop=0 speed=5.88x    frame=23315 fps=141 q=32.0 size=   37560kB time=00:16:12.60 bitrate= 316.4kbits/s dup=1 drop=0 speed= 5.9x    frame=23450 fps=142 q=32.0 size=   37682kB time=00:16:18.19 bitrate= 315.6kbits/s dup=1 drop=0 speed=5.92x    frame=23577 fps=142 q=32.0 size=   37854kB time=00:16:23.53 bitrate= 315.3kbits/s dup=1 drop=0 speed=5.93x    frame=23688 fps=142 q=32.0 size=   37992kB time=00:16:28.13 bitrate= 315.0kbits/s dup=1 drop=0 speed=5.94x    frame=23795 fps=143 q=32.0 size=   38152kB time=00:16:32.61 bitrate= 314.9kbits/s dup=1 drop=0 speed=5.95x    frame=23872 fps=143 q=32.0 size=   38336kB time=00:16:35.81 bitrate= 315.4kbits/s dup=1 drop=0 speed=5.95x    frame=23951 fps=143 q=32.0 size=   38476kB time=00:16:39.10 bitrate= 315.5kbits/s dup=1 drop=0 speed=5.95x    frame=24023 fps=143 q=32.0 size=   38624kB time=00:16:42.13 bitrate= 315.7kbits/s dup=1 drop=0 speed=5.95x    frame=24145 fps=143 q=32.0 size=   38803kB time=00:16:47.21 bitrate= 315.6kbits/s dup=1 drop=0 speed=5.96x    frame=24265 fps=143 q=32.0 size=   38948kB time=00:16:52.20 bitrate= 315.2kbits/s dup=1 drop=0 speed=5.97x    frame=24382 fps=143 q=32.0 size=   39100kB time=00:16:57.11 bitrate= 314.9kbits/s dup=1 drop=0 speed=5.99x    frame=24507 fps=144 q=32.0 size=   39267kB time=00:17:02.31 bitrate= 314.7kbits/s dup=1 drop=0 speed=   6x    frame=24627 fps=144 q=32.0 size=   39424kB time=00:17:07.30 bitrate= 314.4kbits/s dup=1 drop=0 speed=6.01x    frame=24728 fps=144 q=32.0 size=   39582kB time=00:17:11.53 bitrate= 314.3kbits/s dup=1 drop=0 speed=6.02x    frame=24866 fps=145 q=32.0 size=   39684kB time=00:17:17.29 bitrate= 313.4kbits/s dup=1 drop=0 speed=6.03x    frame=24979 fps=145 q=32.0 size=   39860kB time=00:17:22.02 bitrate= 313.4kbits/s dup=1 drop=0 speed=6.04x    frame=25095 fps=145 q=32.0 size=   40014kB time=00:17:26.80 bitrate= 313.1kbits/s dup=1 drop=0 speed=6.05x    frame=25231 fps=145 q=32.0 size=   40152kB time=00:17:32.48 bitrate= 312.5kbits/s dup=1 drop=0 speed=6.07x    frame=25359 fps=146 q=32.0 size=   40289kB time=00:17:37.85 bitrate= 312.0kbits/s dup=1 drop=0 speed=6.08x    frame=25488 fps=146 q=32.0 size=   40422kB time=00:17:43.23 bitrate= 311.4kbits/s dup=1 drop=0 speed=6.09x    frame=25609 fps=146 q=32.0 size=   40587kB time=00:17:48.26 bitrate= 311.2kbits/s dup=1 drop=0 speed=6.11x    frame=25743 fps=147 q=32.0 size=   40694kB time=00:17:53.85 bitrate= 310.4kbits/s dup=1 drop=0 speed=6.12x    frame=25864 fps=147 q=32.0 size=   40834kB time=00:17:58.89 bitrate= 310.0kbits/s dup=1 drop=0 speed=6.13x    frame=25963 fps=147 q=32.0 size=   41018kB time=00:18:03.03 bitrate= 310.3kbits/s dup=1 drop=0 speed=6.14x    frame=26092 fps=147 q=32.0 size=   41157kB time=00:18:08.40 bitrate= 309.8kbits/s dup=1 drop=0 speed=6.15x    frame=26232 fps=148 q=32.0 size=   41251kB time=00:18:14.25 bitrate= 308.8kbits/s dup=1 drop=0 speed=6.17x    frame=26307 fps=148 q=32.0 size=   41381kB time=00:18:17.36 bitrate= 308.9kbits/s dup=1 drop=0 speed=6.17x    frame=26376 fps=148 q=32.0 size=   41488kB time=00:18:20.26 bitrate= 308.9kbits/s dup=1 drop=0 speed=6.16x    frame=26436 fps=148 q=32.0 size=   41578kB time=00:18:22.74 bitrate= 308.9kbits/s dup=1 drop=0 speed=6.16x    frame=26484 fps=148 q=32.0 size=   41678kB time=00:18:24.74 bitrate= 309.1kbits/s dup=1 drop=0 speed=6.15x    frame=26547 fps=147 q=32.0 size=   41748kB time=00:18:27.39 bitrate= 308.8kbits/s dup=1 drop=0 speed=6.15x    frame=26586 fps=147 q=32.0 size=   41882kB time=00:18:29.01 bitrate= 309.4kbits/s dup=1 drop=0 speed=6.14x    frame=26657 fps=147 q=32.0 size=   41985kB time=00:18:31.95 bitrate= 309.3kbits/s dup=1 drop=0 speed=6.14x    frame=26751 fps=147 q=32.0 size=   42042kB time=00:18:35.88 bitrate= 308.6kbits/s dup=1 drop=0 speed=6.14x    frame=26821 fps=147 q=32.0 size=   42180kB time=00:18:38.82 bitrate= 308.8kbits/s dup=1 drop=0 speed=6.14x    frame=26899 fps=147 q=32.0 size=   42264kB time=00:18:42.11 bitrate= 308.6kbits/s dup=1 drop=0 speed=6.15x    frame=26974 fps=147 q=32.0 size=   42382kB time=00:18:45.18 bitrate= 308.6kbits/s dup=1 drop=0 speed=6.15x    frame=27040 fps=147 q=32.0 size=   42463kB time=00:18:47.95 bitrate= 308.4kbits/s dup=1 drop=0 speed=6.14x    frame=27110 fps=147 q=32.0 size=   42556kB time=00:18:50.85 bitrate= 308.3kbits/s dup=1 drop=0 speed=6.14x    frame=27172 fps=147 q=32.0 size=   42651kB time=00:18:53.46 bitrate= 308.3kbits/s dup=1 drop=0 speed=6.14x    frame=27216 fps=147 q=32.0 size=   42744kB time=00:18:55.29 bitrate= 308.4kbits/s dup=1 drop=0 speed=6.13x    frame=27257 fps=147 q=32.0 size=   42831kB time=00:18:57.00 bitrate= 308.6kbits/s dup=1 drop=0 speed=6.12x    frame=27309 fps=147 q=32.0 size=   42936kB time=00:18:59.17 bitrate= 308.8kbits/s dup=1 drop=0 speed=6.12x    frame=27363 fps=147 q=32.0 size=   43017kB time=00:19:01.39 bitrate= 308.7kbits/s dup=1 drop=0 speed=6.11x    frame=27404 fps=146 q=32.0 size=   43077kB time=00:19:03.14 bitrate= 308.7kbits/s dup=1 drop=0 speed=6.11x    frame=27451 fps=146 q=32.0 size=   43155kB time=00:19:05.06 bitrate= 308.7kbits/s dup=1 drop=0 speed= 6.1x    frame=27513 fps=146 q=32.0 size=   43242kB time=00:19:07.67 bitrate= 308.7kbits/s dup=1 drop=0 speed= 6.1x    frame=27583 fps=146 q=32.0 size=   43300kB time=00:19:10.61 bitrate= 308.3kbits/s dup=1 drop=0 speed= 6.1x    frame=27658 fps=146 q=32.0 size=   43356kB time=00:19:13.77 bitrate= 307.8kbits/s dup=1 drop=0 speed= 6.1x    frame=27720 fps=146 q=32.0 size=   43464kB time=00:19:16.33 bitrate= 307.9kbits/s dup=1 drop=0 speed=6.09x    frame=27791 fps=146 q=32.0 size=   43545kB time=00:19:19.27 bitrate= 307.7kbits/s dup=1 drop=0 speed=6.09x    frame=27852 fps=146 q=32.0 size=   43607kB time=00:19:21.79 bitrate= 307.5kbits/s dup=1 drop=0 speed=6.09x    frame=27912 fps=146 q=32.0 size=   43662kB time=00:19:24.31 bitrate= 307.2kbits/s dup=1 drop=0 speed=6.09x    frame=27971 fps=146 q=32.0 size=   43716kB time=00:19:26.78 bitrate= 306.9kbits/s dup=1 drop=0 speed=6.08x    frame=28006 fps=146 q=32.0 size=   43771kB time=00:19:28.23 bitrate= 306.9kbits/s dup=1 drop=0 speed=6.08x    frame=28054 fps=146 q=32.0 size=   43859kB time=00:19:30.24 bitrate= 307.0kbits/s dup=1 drop=0 speed=6.07x    frame=28111 fps=145 q=32.0 size=   43920kB time=00:19:32.63 bitrate= 306.8kbits/s dup=1 drop=0 speed=6.07x    frame=28176 fps=145 q=32.0 size=   44006kB time=00:19:35.31 bitrate= 306.7kbits/s dup=1 drop=0 speed=6.06x    frame=28235 fps=145 q=32.0 size=   44064kB time=00:19:37.83 bitrate= 306.5kbits/s dup=1 drop=0 speed=6.06x    frame=28287 fps=145 q=32.0 size=   44144kB time=00:19:39.96 bitrate= 306.5kbits/s dup=1 drop=0 speed=6.06x    frame=28330 fps=145 q=32.0 size=   44207kB time=00:19:41.76 bitrate= 306.4kbits/s dup=1 drop=0 speed=6.05x    frame=28386 fps=145 q=32.0 size=   44286kB time=00:19:44.06 bitrate= 306.4kbits/s dup=1 drop=0 speed=6.04x    frame=28458 fps=145 q=32.0 size=   44359kB time=00:19:47.09 bitrate= 306.1kbits/s dup=1 drop=0 speed=6.04x    frame=28509 fps=145 q=32.0 size=   44450kB time=00:19:49.22 bitrate= 306.2kbits/s dup=1 drop=0 speed=6.04x    frame=28565 fps=145 q=32.0 size=   44509kB time=00:19:51.53 bitrate= 306.0kbits/s dup=1 drop=0 speed=6.04x    frame=28625 fps=145 q=32.0 size=   44566kB time=00:19:54.09 bitrate= 305.7kbits/s dup=1 drop=0 speed=6.03x    frame=28684 fps=145 q=32.0 size=   44645kB time=00:19:56.52 bitrate= 305.7kbits/s dup=1 drop=0 speed=6.03x    frame=28754 fps=145 q=32.0 size=   44721kB time=00:19:59.46 bitrate= 305.4kbits/s dup=1 drop=0 speed=6.03x    frame=28810 fps=144 q=32.0 size=   44783kB time=00:20:01.77 bitrate= 305.3kbits/s dup=1 drop=0 speed=6.03x    frame=28861 fps=144 q=32.0 size=   44890kB time=00:20:03.90 bitrate= 305.5kbits/s dup=1 drop=0 speed=6.02x    frame=28915 fps=144 q=32.0 size=   44980kB time=00:20:06.16 bitrate= 305.5kbits/s dup=1 drop=0 speed=6.02x    frame=28963 fps=144 q=32.0 size=   45042kB time=00:20:08.17 bitrate= 305.4kbits/s dup=1 drop=0 speed=6.01x    frame=29014 fps=144 q=32.0 size=   45101kB time=00:20:10.30 bitrate= 305.3kbits/s dup=1 drop=0 speed=6.01x    frame=29073 fps=144 q=32.0 size=   45162kB time=00:20:12.73 bitrate= 305.1kbits/s dup=1 drop=0 speed=6.01x    frame=29116 fps=144 q=32.0 size=   45228kB time=00:20:14.52 bitrate= 305.1kbits/s dup=1 drop=0 speed=   6x    frame=29176 fps=144 q=32.0 size=   45301kB time=00:20:17.04 bitrate= 304.9kbits/s dup=1 drop=0 speed=   6x    frame=29230 fps=144 q=32.0 size=   45354kB time=00:20:19.30 bitrate= 304.7kbits/s dup=1 drop=0 speed=5.99x    frame=29290 fps=144 q=32.0 size=   45429kB time=00:20:21.78 bitrate= 304.6kbits/s dup=1 drop=0 speed=5.99x    frame=29322 fps=143 q=32.0 size=   45512kB time=00:20:23.14 bitrate= 304.8kbits/s dup=1 drop=0 speed=5.98x    frame=29378 fps=143 q=32.0 size=   45621kB time=00:20:25.45 bitrate= 305.0kbits/s dup=1 drop=0 speed=5.98x    frame=29423 fps=143 q=32.0 size=   45691kB time=00:20:27.32 bitrate= 305.0kbits/s dup=1 drop=0 speed=5.97x    frame=29468 fps=143 q=32.0 size=   45796kB time=00:20:29.20 bitrate= 305.2kbits/s dup=1 drop=0 speed=5.97x    frame=29512 fps=143 q=32.0 size=   45900kB time=00:20:31.04 bitrate= 305.4kbits/s dup=1 drop=0 speed=5.96x    frame=29553 fps=143 q=32.0 size=   45999kB time=00:20:32.74 bitrate= 305.7kbits/s dup=1 drop=0 speed=5.96x    frame=29583 fps=143 q=32.0 size=   46088kB time=00:20:34.02 bitrate= 306.0kbits/s dup=1 drop=0 speed=5.95x    frame=29622 fps=142 q=32.0 size=   46174kB time=00:20:35.64 bitrate= 306.1kbits/s dup=1 drop=0 speed=5.94x    frame=29660 fps=142 q=32.0 size=   46262kB time=00:20:37.22 bitrate= 306.3kbits/s dup=1 drop=0 speed=5.93x    frame=29703 fps=142 q=32.0 size=   46327kB time=00:20:39.01 bitrate= 306.3kbits/s dup=1 drop=0 speed=5.93x    frame=29752 fps=142 q=32.0 size=   46403kB time=00:20:41.06 bitrate= 306.3kbits/s dup=1 drop=0 speed=5.92x    frame=29831 fps=142 q=32.0 size=   46497kB time=00:20:44.39 bitrate= 306.1kbits/s dup=1 drop=0 speed=5.93x    frame=29900 fps=142 q=32.0 size=   46576kB time=00:20:47.21 bitrate= 305.9kbits/s dup=1 drop=0 speed=5.93x    frame=30011 fps=142 q=32.0 size=   46757kB time=00:20:51.86 bitrate= 306.0kbits/s dup=1 drop=0 speed=5.93x    frame=30115 fps=142 q=32.0 size=   46905kB time=00:20:56.21 bitrate= 305.9kbits/s dup=1 drop=0 speed=5.94x    frame=30197 fps=142 q=32.0 size=   47056kB time=00:20:59.62 bitrate= 306.0kbits/s dup=1 drop=0 speed=5.94x    frame=30259 fps=142 q=32.0 size=   47197kB time=00:21:02.18 bitrate= 306.3kbits/s dup=1 drop=0 speed=5.94x    frame=30359 fps=143 q=32.0 size=   47371kB time=00:21:06.36 bitrate= 306.4kbits/s dup=1 drop=0 speed=5.94x    frame=30468 fps=143 q=32.0 size=   47540kB time=00:21:10.93 bitrate= 306.4kbits/s dup=1 drop=0 speed=5.95x    frame=30591 fps=143 q=32.0 size=   47679kB time=00:21:16.09 bitrate= 306.1kbits/s dup=1 drop=0 speed=5.96x    frame=30664 fps=143 q=32.0 size=   47808kB time=00:21:19.08 bitrate= 306.2kbits/s dup=1 drop=0 speed=5.96x    frame=30743 fps=143 q=32.0 size=   47950kB time=00:21:22.41 bitrate= 306.3kbits/s dup=1 drop=0 speed=5.96x    frame=30821 fps=143 q=32.0 size=   48103kB time=00:21:25.65 bitrate= 306.5kbits/s dup=1 drop=0 speed=5.96x    frame=30901 fps=143 q=32.0 size=   48271kB time=00:21:28.98 bitrate= 306.8kbits/s dup=1 drop=0 speed=5.97x    frame=30973 fps=143 q=32.0 size=   48481kB time=00:21:32.01 bitrate= 307.4kbits/s dup=1 drop=0 speed=5.97x    frame=31044 fps=143 q=32.0 size=   48677kB time=00:21:34.95 bitrate= 307.9kbits/s dup=1 drop=0 speed=5.97x    frame=31121 fps=143 q=32.0 size=   48922kB time=00:21:38.15 bitrate= 308.7kbits/s dup=1 drop=0 speed=5.97x    frame=31176 fps=143 q=32.0 size=   49155kB time=00:21:40.45 bitrate= 309.6kbits/s dup=1 drop=0 speed=5.96x    frame=31244 fps=143 q=32.0 size=   49382kB time=00:21:43.27 bitrate= 310.4kbits/s dup=1 drop=0 speed=5.96x    frame=31336 fps=143 q=32.0 size=   49527kB time=00:21:47.11 bitrate= 310.4kbits/s dup=1 drop=0 speed=5.97x    frame=31431 fps=143 q=32.0 size=   49720kB time=00:21:51.08 bitrate= 310.7kbits/s dup=1 drop=0 speed=5.97x    frame=31481 fps=143 q=32.0 size=   49908kB time=00:21:53.17 bitrate= 311.3kbits/s dup=1 drop=0 speed=5.97x    frame=31538 fps=143 q=32.0 size=   50066kB time=00:21:55.56 bitrate= 311.8kbits/s dup=1 drop=0 speed=5.96x    frame=31612 fps=143 q=32.0 size=   50282kB time=00:21:58.63 bitrate= 312.4kbits/s dup=1 drop=0 speed=5.96x    frame=31673 fps=143 q=32.0 size=   50431kB time=00:22:01.19 bitrate= 312.7kbits/s dup=1 drop=0 speed=5.96x    frame=31751 fps=143 q=32.0 size=   50637kB time=00:22:04.43 bitrate= 313.2kbits/s dup=1 drop=0 speed=5.96x    frame=31812 fps=143 q=32.0 size=   50800kB time=00:22:06.99 bitrate= 313.6kbits/s dup=1 drop=0 speed=5.96x    frame=31885 fps=143 q=32.0 size=   50963kB time=00:22:10.07 bitrate= 313.9kbits/s dup=1 drop=0 speed=5.96x    frame=31941 fps=143 q=32.0 size=   51131kB time=00:22:12.37 bitrate= 314.4kbits/s dup=1 drop=0 speed=5.96x    frame=31993 fps=143 q=32.0 size=   51344kB time=00:22:14.55 bitrate= 315.2kbits/s dup=1 drop=0 speed=5.95x    frame=32032 fps=143 q=32.0 size=   51503kB time=00:22:16.17 bitrate= 315.8kbits/s dup=1 drop=0 speed=5.95x    frame=32093 fps=143 q=32.0 size=   51705kB time=00:22:18.68 bitrate= 316.4kbits/s dup=1 drop=0 speed=5.95x    frame=32160 fps=143 q=32.0 size=   51905kB time=00:22:21.50 bitrate= 317.0kbits/s dup=1 drop=0 speed=5.94x    frame=32226 fps=142 q=32.0 size=   52051kB time=00:22:24.27 bitrate= 317.2kbits/s dup=1 drop=0 speed=5.94x    frame=32308 fps=143 q=32.0 size=   52190kB time=00:22:27.69 bitrate= 317.2kbits/s dup=1 drop=0 speed=5.94x    frame=32380 fps=143 q=32.0 size=   52357kB time=00:22:30.67 bitrate= 317.5kbits/s dup=1 drop=0 speed=5.94x    frame=32440 fps=142 q=32.0 size=   52526kB time=00:22:33.15 bitrate= 318.0kbits/s dup=1 drop=0 speed=5.94x    frame=32505 fps=142 q=32.0 size=   52686kB time=00:22:35.88 bitrate= 318.3kbits/s dup=1 drop=0 speed=5.94x    frame=32573 fps=142 q=32.0 size=   52810kB time=00:22:38.74 bitrate= 318.4kbits/s dup=1 drop=0 speed=5.94x    frame=32656 fps=142 q=32.0 size=   52916kB time=00:22:42.19 bitrate= 318.2kbits/s dup=1 drop=0 speed=5.94x    frame=32767 fps=143 q=32.0 size=   53047kB time=00:22:46.80 bitrate= 317.9kbits/s dup=1 drop=0 speed=5.95x    frame=32869 fps=143 q=32.0 size=   53175kB time=00:22:51.07 bitrate= 317.7kbits/s dup=1 drop=0 speed=5.95x    frame=32973 fps=143 q=32.0 size=   53312kB time=00:22:55.42 bitrate= 317.5kbits/s dup=1 drop=0 speed=5.96x    frame=33047 fps=143 q=32.0 size=   53376kB time=00:22:58.49 bitrate= 317.2kbits/s dup=1 drop=0 speed=5.96x    frame=33108 fps=143 q=32.0 size=   53464kB time=00:23:01.01 bitrate= 317.1kbits/s dup=1 drop=0 speed=5.96x    frame=33162 fps=143 q=32.0 size=   53550kB time=00:23:03.27 bitrate= 317.1kbits/s dup=1 drop=0 speed=5.95x    frame=33223 fps=143 q=32.0 size=   53621kB time=00:23:05.83 bitrate= 317.0kbits/s dup=1 drop=0 speed=5.95x    frame=33269 fps=143 q=32.0 size=   53738kB time=00:23:07.75 bitrate= 317.2kbits/s dup=1 drop=0 speed=5.95x    frame=33326 fps=143 q=32.0 size=   53833kB time=00:23:10.14 bitrate= 317.2kbits/s dup=1 drop=0 speed=5.95x    frame=33409 fps=143 q=32.0 size=   53930kB time=00:23:13.60 bitrate= 317.0kbits/s dup=1 drop=0 speed=5.95x    frame=33501 fps=143 q=32.0 size=   53990kB time=00:23:17.39 bitrate= 316.5kbits/s dup=1 drop=0 speed=5.95x    frame=33573 fps=143 q=32.0 size=   54090kB time=00:23:20.42 bitrate= 316.4kbits/s dup=1 drop=0 speed=5.95x    frame=33626 fps=143 q=32.0 size=   54173kB time=00:23:22.64 bitrate= 316.4kbits/s dup=1 drop=0 speed=5.95x    frame=33683 fps=142 q=32.0 size=   54250kB time=00:23:25.03 bitrate= 316.3kbits/s dup=1 drop=0 speed=5.94x    frame=33750 fps=142 q=32.0 size=   54331kB time=00:23:27.80 bitrate= 316.2kbits/s dup=1 drop=0 speed=5.94x    frame=33825 fps=142 q=32.0 size=   54433kB time=00:23:30.92 bitrate= 316.0kbits/s dup=1 drop=0 speed=5.94x    frame=33909 fps=143 q=32.0 size=   54523kB time=00:23:34.42 bitrate= 315.8kbits/s dup=1 drop=0 speed=5.95x    frame=33999 fps=143 q=32.0 size=   54591kB time=00:23:38.21 bitrate= 315.3kbits/s dup=1 drop=0 speed=5.95x    frame=34065 fps=143 q=32.0 size=   54643kB time=00:23:40.95 bitrate= 315.0kbits/s dup=1 drop=0 speed=5.95x    frame=34115 fps=142 q=32.0 size=   54748kB time=00:23:43.04 bitrate= 315.2kbits/s dup=1 drop=0 speed=5.94x    frame=34173 fps=142 q=32.0 size=   54827kB time=00:23:45.47 bitrate= 315.1kbits/s dup=1 drop=0 speed=5.94x    frame=34234 fps=142 q=32.0 size=   54884kB time=00:23:47.99 bitrate= 314.9kbits/s dup=1 drop=0 speed=5.94x    frame=34264 fps=142 q=32.0 size=   54963kB time=00:23:49.22 bitrate= 315.0kbits/s dup=1 drop=0 speed=5.93x    frame=34306 fps=142 q=32.0 size=   55027kB time=00:23:51.01 bitrate= 315.0kbits/s dup=1 drop=0 speed=5.92x    frame=34344 fps=142 q=32.0 size=   55082kB time=00:23:52.59 bitrate= 315.0kbits/s dup=1 drop=0 speed=5.92x    frame=34384 fps=142 q=32.0 size=   55143kB time=00:23:54.26 bitrate= 315.0kbits/s dup=1 drop=0 speed=5.91x    frame=34430 fps=142 q=32.0 size=   55210kB time=00:23:56.22 bitrate= 314.9kbits/s dup=1 drop=0 speed=5.91x    frame=34483 fps=142 q=32.0 size=   55306kB time=00:23:58.40 bitrate= 315.0kbits/s dup=1 drop=0 speed=5.91x    frame=34543 fps=142 q=32.0 size=   55384kB time=00:24:00.87 bitrate= 314.9kbits/s dup=1 drop=0 speed= 5.9x    frame=34609 fps=142 q=32.0 size=   55439kB time=00:24:03.64 bitrate= 314.6kbits/s dup=1 drop=0 speed= 5.9x    frame=34663 fps=141 q=32.0 size=   55532kB time=00:24:05.91 bitrate= 314.6kbits/s dup=1 drop=0 speed= 5.9x    frame=34702 fps=141 q=32.0 size=   55658kB time=00:24:07.53 bitrate= 315.0kbits/s dup=1 drop=0 speed=5.89x    frame=34777 fps=141 q=32.0 size=   55778kB time=00:24:10.64 bitrate= 315.0kbits/s dup=1 drop=0 speed= 5.9x    frame=34834 fps=141 q=32.0 size=   55827kB time=00:24:13.03 bitrate= 314.7kbits/s dup=1 drop=0 speed=5.89x    frame=34889 fps=141 q=32.0 size=   55980kB time=00:24:15.29 bitrate= 315.1kbits/s dup=1 drop=0 speed=5.89x    frame=34936 fps=141 q=32.0 size=   56060kB time=00:24:17.25 bitrate= 315.1kbits/s dup=1 drop=0 speed=5.89x    frame=34991 fps=141 q=32.0 size=   56171kB time=00:24:19.56 bitrate= 315.3kbits/s dup=1 drop=0 speed=5.88x    frame=35041 fps=141 q=32.0 size=   56329kB time=00:24:21.65 bitrate= 315.7kbits/s dup=1 drop=0 speed=5.88x    frame=35107 fps=141 q=32.0 size=   56441kB time=00:24:24.42 bitrate= 315.7kbits/s dup=1 drop=0 speed=5.88x    frame=35162 fps=141 q=32.0 size=   56558kB time=00:24:26.73 bitrate= 315.9kbits/s dup=1 drop=0 speed=5.88x    frame=35278 fps=141 q=32.0 size=   56671kB time=00:24:31.55 bitrate= 315.5kbits/s dup=1 drop=0 speed=5.88x    frame=35420 fps=141 q=32.0 size=   56764kB time=00:24:37.48 bitrate= 314.7kbits/s dup=1 drop=0 speed= 5.9x    [mp4 @ 0x33e4ae0] Starting second pass: moving the moov atom to the beginning of the file
frame=35542 fps=142 q=-1.0 Lsize=   57708kB time=00:24:42.27 bitrate= 318.9kbits/s dup=1 drop=0 speed= 5.9x    
video:47588kB audio:9277kB subtitle:0kB other streams:0kB global headers:0kB muxing overhead: 1.481851%
[libx264 @ 0x33ed9c0] frame I:316   Avg QP:22.58  size: 17577
[libx264 @ 0x33ed9c0] frame P:11569 Avg QP:25.34  size:  2951
[libx264 @ 0x33ed9c0] frame B:23657 Avg QP:30.92  size:   382
[libx264 @ 0x33ed9c0] consecutive B-frames:  3.2%  7.3% 50.5% 39.0%
[libx264 @ 0x33ed9c0] mb I  I16..4: 23.2% 51.0% 25.8%
[libx264 @ 0x33ed9c0] mb P  I16..4:  3.9%  3.1%  1.4%  P16..4: 33.9%  5.2%  4.5%  0.2%  0.0%    skip:47.7%
[libx264 @ 0x33ed9c0] mb B  I16..4:  0.2%  0.2%  0.1%  B16..8: 14.1%  1.0%  0.2%  direct: 0.4%  skip:83.9%  L0:38.4% L1:59.6% BI: 2.0%
[libx264 @ 0x33ed9c0] 8x8 transform intra:40.2% inter:53.4%
[libx264 @ 0x33ed9c0] coded y,uvDC,uvAC intra: 36.2% 53.5% 10.1% inter: 2.2% 4.3% 0.0%
[libx264 @ 0x33ed9c0] i16 v,h,dc,p: 38% 27% 21% 14%
[libx264 @ 0x33ed9c0] i8 v,h,dc,ddl,ddr,vr,hd,vl,hu: 23% 18% 36%  4%  3%  4%  3%  4%  4%
[libx264 @ 0x33ed9c0] i4 v,h,dc,ddl,ddr,vr,hd,vl,hu: 28% 19% 21%  5%  5%  6%  5%  5%  4%
[libx264 @ 0x33ed9c0] i8c dc,h,v,p: 50% 22% 22%  6%
[libx264 @ 0x33ed9c0] Weighted P-Frames: Y:0.9% UV:0.7%
[libx264 @ 0x33ed9c0] ref P L0: 60.1% 11.2% 13.5%  4.3%  3.4%  2.9%  2.6%  1.4%  0.8%  0.0%
[libx264 @ 0x33ed9c0] ref B L0: 79.9%  8.7%  5.0%  2.1%  1.8%  1.4%  1.0%
[libx264 @ 0x33ed9c0] ref B L1: 91.6%  8.4%
[libx264 @ 0x33ed9c0] kb/s:262.98
